<?xml version="1.0"?><svg version="1.2" baseProfile="tiny-ps" viewBox="0 0 300 300" xmlns="http://www.w3.org/2000/svg" xmlns:xlink="http://www.w3.org/1999/xlink"><title>divaye</title><g><g fill="#fff" transform="matrix(.1 0 0 -.1 0 300)"><path d="M0 1500V0h3000v3000H0V1500z"/></g><g fill="#dedede" transform="matrix(.1 0 0 -.1 0 300)"><path d="M960 2276c-118-26-224-74-300-134-55-43-75-66-100-114l-20-37v-89l25-31 26-30 35-11 36-12 11 11 11 11-32 30-32 29v18c0 10 11 41 24 69l23 50 49 42 49 42 70 35 70 34 70 17 70 16 90 1 90 1 56-17 55-16 41-30c22-16 50-43 62-60l22-30 12-56 11-55-11-67-12-67-37-75-37-75-72-72-72-72-89-43-89-44H871l-18 17-17 18 13 37c26 73 202 416 266 518 36 57 65 110 65 118 0 23-22 26-62 10l-37-15-39-61c-97-151-197-346-268-518l-44-108v-68l21-19 20-18 20 12 19 12 97-6 98-6 64 11 65 10 73 35 74 36 59 46 58 46 46 58c52 66 97 152 116 222l13 48-5 77-5 78-20 46c-26 59-73 111-128 144l-45 26-77 19-76 20-101-1-101-1-55-12zm1141-1-33-15-59-61c-58-61-182-222-339-443-47-66-119-155-160-199l-75-80-44-29-45-28h-67l-6-17-6-16 27-24 27-23h65l46 29c62 40 112 91 193 197 36 49 73 93 81 97 7 4 59 11 113 14l100 6-7-39c-4-21-7-79-7-127v-89l28-24 28-24h70l28 14c30 16 92 81 111 116l12 22-11 11-11 11-48-46c-26-25-55-48-66-52l-19-6-13 11-14 11v58c0 31 3 78 6 104l7 46h41c22 0 58 5 79 11l38 10 34 31c36 31 44 52 24 63l-10 7-19-17c-25-23-87-44-132-45h-36l18 58c24 78 80 219 129 325 23 49 41 99 41 111v23l-18 16-19 17h-24c-13-1-39-7-58-15zm5-97c-66-151-117-276-140-345l-28-83h-41c-23 0-66-3-96-7l-54-6 68 99c145 209 277 374 300 374 3 0-1-15-9-32zm-529-1012c-7-8-36-71-62-141l-49-127-23-15c-13-8-23-19-23-24v-9h130v9c0 5-9 13-20 16l-20 6 6 27c10 41 11 42 70 42h54l10-26c14-36 13-41-10-47-11-3-20-10-20-16v-11h150v11c0 6-9 13-20 16l-19 5-29 77c-16 42-42 109-57 149l-27 72h-13c-8 0-20-6-28-14zm42-163 1-13h-70v8c0 5 7 30 17 57l16 48 18-44c10-24 18-50 18-56zM540 1159c0-6 9-13 20-16l20-5V882l-20-5c-11-3-20-10-20-16v-11l63-2c34-2 84-2 110-1l49 3 33 20 34 21 20 43 21 42v69l-20 43-19 43-43 19-43 20H540v-11zm193-33 33-13 17-26 17-26V941l-23-26-23-27-48-5-48-6-9 14-9 14v235h30c17 0 45-6 63-14zm187 29v-15h14c8 0 17-7 20-16 8-20 8-124 0-191l-7-51-18-5c-11-3-19-10-19-16v-11h150v11c0 6-9 13-20 16l-20 5v250l20 5 20 5v28H920v-15zm170 1v-15l21-3 21-3 61-147 61-148h33l64 147 64 146 17 5 18 4v28h-130v-30h40l-1-17c0-10-17-60-38-112l-38-94-36 95c-21 52-37 101-37 110v16l21 5 21 6-7 10-6 11h-149v-14zm650 0v-14l19-5 18-4 52-86 51-86-6-39-6-40-19-5c-11-3-19-10-19-16v-11h150v10c0 6-8 14-17 17-24 9-33 23-33 55v27l47 77 48 77 27 20c16 12 28 24 28 29v8h-130v-30h30v-11c0-14-53-109-61-109-5 0-54 83-67 112l-4 8h42v30h-150v-14zm370 0v-14l20-5 20-5V880h-40v-30h258l6 23c8 32 7 67-2 67-5 0-18-14-30-30l-23-30h-85l-12 12-12 12v86h82l5-20 6-21 11 4 11 4 3 51 3 52h-14c-8 0-17-7-21-15l-5-15h-81v110h89l15-16c9-8 16-22 16-30v-14h30v90h-250v-14z"/></g><g fill="#b2b2b2" transform="matrix(.1 0 0 -.1 0 300)"><path d="M970 2276c-142-32-253-84-338-161l-50-45-21-43-21-43v-65l15-29 15-30 30-15c31-16 80-20 80-7 0 5-14 18-30 30l-30 23v27c0 15 9 45 19 67l18 40 53 48 52 47 72 35c39 19 100 42 136 52l65 16h210l60-23 60-23 46-46 47-46 11-40c23-85 8-191-43-295l-31-65-59-62-58-63-62-40-61-40-64-20-63-20H899l-35 15-35 15 6 22c4 13 55 122 115 243l109 220 60 90c33 50 61 98 61 108v17h-58l-30-25-30-25-58-98c-123-205-260-501-272-584l-5-38 13-15 12-15h24c12 0 25 4 28 9l6 8 42-8c24-4 73-8 109-9h66l77 20 77 20 62 32 62 33 85 85 85 85 32 61c39 73 63 161 63 228v50l-16 56-16 57-36 48-37 48-61 34-62 34-68 14-69 15-90-1-90-1-55-12zm1129-6-35-19-65-68c-62-66-143-172-341-447l-93-129-71-72-70-73-42-21c-23-12-52-21-65-21h-25l-12-15-12-14 26-26 25-25h26c14 0 41 7 61 15l35 14 60 58c33 31 89 96 125 144 35 48 72 90 82 94 9 4 62 10 116 13l99 5-7-24c-4-13-10-62-13-110l-6-85 17-32c20-38 43-52 89-52h34l41 29 40 30 32 46 32 47-11 11-11 11-43-46-42-45-23-8-23-7-14 12-15 12v73c0 40 3 87 6 104l7 31h83l46 15 45 16 28 29 28 29-6 15-6 15-57-29-56-30h-44c-24 0-44 2-44 4 0 18 82 232 122 321 28 61 55 127 61 149l12 38-24 19-23 19h-22c-11-1-37-9-57-20zm-27-176c-40-89-114-281-127-330l-3-11-92-7c-51-4-94-5-96-4-4 5 158 239 233 335 61 78 121 138 129 130 3-2-18-53-44-113zM545 1160l-7-11 21-6 21-5V882l-20-5c-11-3-20-10-20-15v-10l83-4c126-6 172 10 221 76l21 27v118l-21 27c-11 15-33 37-48 48l-27 21-109 3-108 4-7-12zm214-47 26-20 13-39 13-39-7-39-6-40-29-29-29-28-47 3-48 3-3 129-3 129 47-6 46-5 27-19zm161 43v-14l20-5 20-5V890l-25-10c-14-5-25-14-25-20v-10h150v10c0 6-8 14-17 17-10 4-21 11-25 17-9 13-10 171-2 214l6 30 20 5 20 6-7 10-6 11H920v-14zm175 4-6-10 23-9 24-9 59-146 59-146h31l64 146 64 145 19 10c10 5 18 14 18 19v10h-119l-6-11-7-10 21-6 21-5v-17c0-15-66-190-75-200-5-4-26 47-60 141l-25 70 20 5 20 5v28h-139l-6-10zm426-122c-58-150-59-152-84-161l-18-7 6-10 6-10h108l6 9 5 10-20 6-21 7 7 31c3 18 9 36 12 41l5 9 54-6c30-3 57-8 59-10s7-17 10-34l6-30-21-6c-12-3-21-10-21-16v-11h140v9c0 5-9 15-20 22l-19 14-49 135-49 135-25 3-25 3-52-133zm95-22 6-26h-80l21 57 21 57 13-31c6-17 15-42 19-57zm130 145-6-9 24-15 23-16 47-79 46-79v-29c0-34-8-48-32-57-10-3-18-11-18-17v-10h150v8c0 5-11 14-25 20l-25 12v74l53 84 52 84 23 9 23 9-6 10-6 10h-119v-11c0-6 9-13 20-16s20-7 20-10c0-6-50-94-63-111l-10-13-33 58c-39 68-40 73-14 73h20v30h-139l-5-9zm364-1c0-6 8-14 18-17 9-4 20-11 24-17 9-14 10-137 2-200l-7-46h-37v-30h258l7 41c9 54 0 59-33 20l-27-32-50 3-50 3-3 59-3 59 38-6 38-7 11-15c6-8 16-15 23-15h11v100h-14c-8 0-16-7-20-15l-5-15h-81v110h39c53 0 71-8 82-37l9-24 10 6 10 6v79h-250v-10z"/></g><g fill="#848584" transform="matrix(.1 0 0 -.1 0 300)"><path d="M960 2271c-105-23-175-51-262-108l-68-44-30-37c-17-20-37-56-46-79l-16-42 6-35 7-34 35-31 35-31h59v8c0 5-13 18-30 30l-30 23v61l27 50 27 49 58 44c106 80 219 120 367 132l78 6 76-17 77-17 47-33 48-33 27-53 28-52v-136l-20-64-20-64-38-60-39-59-66-62-67-62-72-35-73-35-66-10-67-11-33 6c-19 4-46 13-61 21l-28 14v12c0 7 51 116 114 243l114 229 61 94 62 93-5 14-5 14h-48l-26-20-26-21-67-110c-78-131-223-426-255-522l-22-69 9-26 9-27 23-3 23-4 12 10 12 10 70-10 70-10 81 11 82 10 62 25c156 64 305 216 362 371l22 60v90l1 90-26 56-26 56-36 35-35 36-54 26-53 26-70 15-70 15-75-1h-75l-85-18zm1154 5c-74-32-184-160-395-458-67-93-148-201-181-240l-61-70-60-44-59-44-39-6-39-7v-37l34-17 35-16 46 18 47 17 59 57c33 31 90 96 127 146l67 89 35 7c19 4 70 10 114 13l78 7-8-53c-5-29-9-86-9-126v-74l33-29 32-29h56l47 29 46 30 26 40 27 40-4 18-3 18-35-39c-19-21-48-45-63-53l-28-14-19 6-18 6-7 39-7 40 7 43c3 23 8 54 11 68l5 26 60 6 59 7 40 20 40 20 16 25 17 26-7 6-6 6-53-26-52-27h-95l6 28c12 50 75 212 130 334 30 66 54 126 54 134s-9 23-20 34l-20 20h-17c-10-1-32-7-49-14zm6-72c0-3-25-61-55-128-30-68-70-171-91-229l-36-106-98-3-98-3 76 110c167 243 302 404 302 359zM550 1155v-15h14c20 0 21-7 18-139l-3-120-20-6c-10-4-19-11-19-17v-10l114 4 115 3 28 21c15 12 37 36 47 54l20 33v94l-20 34-19 34-45 23-44 22H550v-15zm215-45 25-24 11-37 12-37-7-38-7-37-30-29-29-29-47 3-48 3-3 129-3 129 51-5 51-5 24-23zm155 46v-14l20-5 21-5-3-123-3-123-22-12-23-11 7-6c3-4 34-7 68-7s65 3 68 7l7 6-23 11-22 12-3 104c-2 58 0 115 2 126l6 22 21 5 21 6-7 10-6 11H920v-14zm180 0v-15l17-3 17-3 61-145 61-145 14-2 15-3 60 141 60 141 22 15 23 15-6 9-5 9h-109v-30h30l-1-22c0-13-17-65-38-116l-38-94-41 106c-23 58-42 110-42 115s9 11 20 14 20 10 20 16v11h-140v-14zm421-122-54-137-18-16c-11-8-19-19-19-23v-8h55c58 0 66 5 38 25l-17 12 10 34 10 34 57 3 57 3 10-26c6-15 10-33 10-42v-15l-20-5-20-5 6-9 5-9h129v10c0 5-8 14-19 19l-18 10-31 83c-17 46-41 109-52 141l-21 57h-44l-54-136zm88 14 21-58h-89l21 60c12 33 23 59 24 57 1-1 11-28 23-59zm137 113-6-9 24-15 24-16 46-76 46-76v-79l-20-12c-11-7-20-16-20-20v-8h63c35 0 67 3 70 7l7 6-23 11-22 11-3 42-3 41 55 84 54 85 16 6c9 4 16 11 16 17v10h-109l-6-11-7-10 21-6c12-3 21-7 21-10 0-9-65-123-70-123s-70 113-70 123c0 2 9 7 21 10l21 6-7 10-6 11h-128l-5-9zm369-1-6-10 26-10 26-10-3-122-3-123-22-10c-13-5-23-13-23-17v-8h260v14c0 7 3 28 6 45l7 31h-11c-7 0-19-14-27-30l-16-31-57 3-57 3-3 58-3 57h30c39 0 61-9 61-26v-14h28l-3 47-3 47-11 4-11 4v-32h-90v111l52-3 53-3 13-28 13-27 10 5 9 6v79h-239l-6-10z"/></g><g fill="#4c4c4c" transform="matrix(.1 0 0 -.1 0 300)"><path d="M1013 2281c-134-22-270-79-361-151l-52-42-24-41c-13-23-27-56-31-73l-6-32 14-33c18-44 45-67 85-75l32-6v9c0 5-11 20-25 33l-25 23v61l21 43 21 43 41 36c58 50 150 98 231 123l70 21 86 7 87 6 66-13 67-12 52-32 52-31 31-43 30-44v-215l-43-87-43-87-69-69-69-69-84-41-83-41-69-11-70-11-49 14-49 14-10 16-10 16 52 114c64 142 195 386 257 478l46 70-7 10c-9 16-36 13-71-8l-31-19-62-103c-84-142-224-427-256-523l-26-79 5-23 6-24 25-6 25-6 13 10 12 11 73-9 72-9 73 9c84 11 135 27 220 72l62 33 75 75 75 75 38 73 38 72 15 72 15 73-6 45c-3 25-13 66-21 92l-15 46-41 47-41 46-51 26c-72 37-137 52-241 57l-90 5-52-8zm1052-39-50-37-88-110c-48-60-115-149-150-198-121-174-213-293-277-360l-64-69-51-29-50-29h-55v-14c0-8 7-22 16-30l15-16h86l46 31c55 36 119 106 194 210l55 77 74 11c41 6 94 11 117 11h43l-15-87-14-88 7-37 7-38 22-25 22-26 35-5 35-6 42 29c59 40 127 133 97 133-4 0-29-20-55-45l-48-45h-50l-11 19c-13 25-13 97 1 160l10 49 22 6c12 3 37 6 55 6 45 0 91 22 125 58l29 30-9 5-10 6-48-24-48-25h-97v9c0 23 77 228 132 349l60 135-11 23-11 24h-85l-50-38zm55-41c0-5-22-58-49-118-39-88-113-279-126-330l-4-11-98-4c-54-2-99-3-100-3-4 2 164 243 225 322 87 113 152 175 152 144zM550 1161c0-5 9-15 20-21l21-11-3-122-3-122-22-10c-13-5-23-13-23-17v-8h205l35 19 35 18 23 33 22 33v112l-20 32-19 32-33 18-33 17-102 4-103 4v-11zm201-38 29-17 15-32 15-32v-36c0-20-6-52-14-71l-14-33-20-11-21-11H640v260h82l29-17zm174 36-7-10 21-6 21-5V878l-20-5c-11-3-20-9-20-14v-9h130v9c0 5-9 13-20 16l-20 6v248l20 11c11 6 20 15 20 20v10H931l-6-11zm175 2c0-5 9-15 21-23l21-13 57-140 58-140h26l64 145 64 144 14 9c8 4 15 12 15 17v10h-110v-10c0-5 9-14 20-20l19-10-5-18c-4-9-22-59-42-110l-36-92-6 7c-10 11-80 196-80 210 0 7 9 15 20 18s20 11 20 16v9h-140v-9zm477 1c-3-4-28-66-56-137l-51-130-20-17c-11-9-20-19-20-22s25-6 55-6h55v9c0 5-7 11-15 15l-15 5v21c0 12 5 30 10 41l11 19h110l15-36 15-37-13-8c-7-5-16-9-20-9-5 0-8-4-8-10v-10h65c36 0 65 2 65 5 0 2-10 15-23 27l-23 23-49 133-48 132h-18c-10 0-20-3-22-8zm26-94c8-24 18-51 22-60l7-18h-94l7 18c4 9 14 36 22 60 8 23 16 42 18 42s10-19 18-42zm147 86v-14h29l50-84 51-84v-94l-20-5c-11-3-20-9-20-14v-9h130v9c0 5-9 13-20 16l-20 6v88l47 77 47 76 23 15c13 9 23 19 23 24v9h-109l-6-10-6-10h16c8 0 18-6 21-13l5-14-33-56c-18-32-35-57-39-57s-21 26-38 57l-31 57 4 13c3 7 13 13 21 13h16l-5 8-5 9-66 1-65 1v-15zm370 9c0-5 9-14 20-21l21-13-3-122-3-122-22-10c-13-5-23-13-23-17v-8h258l4 38c7 48 2 52-25 19l-22-28-55 3-55 3-3 58-3 57h79l15-22 16-23v110l-12-16-12-16-43-4-42-5v116h100l16-25c9-14 21-25 26-25h9l-3 38-3 37-117 3-118 3v-8z"/></g><g fill="#030303" transform="matrix(.1 0 0 -.1 0 300)"><path d="M935 2261c-144-37-248-93-323-175-50-55-62-82-62-142v-46l29-28 28-29 27-7 27-6 7 6 6 7-29 23-29 23 1 35 1 35 20 39c25 48 69 91 144 138l56 36 79 26 78 27 111 5 112 5 69-21 70-22 45-40 46-40 15-37c8-21 18-57 21-79l7-41-11-64-11-64-37-75-37-75-70-71-70-71-65-36-66-36-64-17-65-16-55 5c-30 3-67 11-82 18l-28 12v44l114 229 114 229 56 83 56 83v39h-11c-6 0-26-7-45-16l-35-17-64-108c-83-140-198-369-241-481l-34-87v-69l15-12 15-12 17 7 18 8 145 1 145 1 59 23c128 48 243 140 323 260l41 62 22 66 22 66-4 92-4 91-27 51-26 51-36 31c-47 42-97 67-172 86l-61 16-113-1h-114l-70-18zm1141-12-47-31-97-122c-54-66-152-197-219-291-205-289-315-395-408-395h-25v-13c0-8 8-21 18-30l19-17h64l37 19c52 26 128 104 207 210l66 89 63 11c34 6 89 11 120 11h58l-6-22c-3-13-11-57-17-98l-10-75 13-40 13-40 38-19 38-18 31 13c42 17 92 62 119 105 32 53 15 53-40 1l-50-47h-50l-12 22-12 22 6 80c3 45 9 89 12 99l7 17h99l37 15c43 18 82 53 82 72 0 18-7 17-43-9l-31-22-65-4-64-5 6 31c10 47 74 214 128 334l49 107v24c0 13-5 28-12 35l-12 12h-63l-47-31zm54-32c0-1-29-69-64-150s-77-187-92-236l-29-88-100-5c-55-3-101-4-103-3-6 5 176 263 250 357 63 80 111 127 131 128 4 0 7-1 7-3zM601 1163l-54-4 22-15 21-15V878l-20-5c-11-3-20-9-20-14v-9h184l40 20 41 20 19 26 18 26 5 38c3 21 3 54-1 73l-6 35-28 27c-15 15-36 31-47 35-30 11-113 17-174 13zm152-35c10-5 27-24 37-41l20-32V955l-20-32-19-32-40-12-39-12-26 7-26 6-2 48c-1 26-1 83 1 127l3 80 12 7 11 8 35-6c19-4 43-11 53-16zm816 15c-5-16-29-75-52-133l-41-105-23-22-22-23 57 1 57 1-15 5c-8 3-18 10-21 16l-6 9 10 34 10 34h125l11-31c15-44 14-48-11-59l-23-9h140l-22 9-21 9-20 53c-11 29-35 95-53 145l-34 93h-35l-11-27zm45-97c9-27 16-53 16-58v-8h-90v9c0 7 15 55 35 110l6 14 8-9c5-5 16-31 25-58zm-676 102 22-11V878l-20-5c-11-3-20-9-20-14v-9h130v9c0 5-9 11-20 14l-20 5v251l22 15 22 16-69-1h-70l23-11zm179 0 22-11 56-136c31-75 60-143 65-151l9-15 9 10c5 6 35 71 66 145l58 135 20 18 20 17-58-1h-59l23-11c12-6 22-15 22-20s-18-57-41-115l-41-105-9 9c-11 11-79 189-79 208v16l23 9 22 9h-150l22-11zm654-11c15-12 45-54 68-93l41-70v-95l-22-9-23-9h140l-22 9-23 9v96l50 80 50 79 22 13 23 12-59 1h-60l19-14 19-14-11-25c-7-14-24-45-39-68l-26-42-34 59c-18 33-34 67-34 76v17l18 4c9 3-14 5-53 6l-70 1 26-23zm367 11 23-11-3-131-3-130-25-7c-30-8-34-8 112-13l118-5 6 27c3 15 7 33 10 40 6 20-6 14-36-18l-28-30h-35c-20 0-42 3-51 6l-16 6v118h79l15-22 16-22v108l-13-19-14-18-44-1-44-1 1 13c1 6 2 33 2 60l2 47 56-3 55-4 11-24c16-34 25-30 20 11l-4 35-117-1h-116l23-11z"/></g></g></svg>